<svg xmlns="http://www.w3.org/2000/svg" xmlns:xlink="http://www.w3.org/1999/xlink" viewBox="0 0 54.99 54.99"><defs><style>.cls-1{fill:url(#linear-gradient);}.cls-2{fill:url(#linear-gradient-2);}.cls-3{fill:url(#linear-gradient-4);}.cls-4{fill:url(#linear-gradient-5);}.cls-5{fill:url(#linear-gradient-6);}.cls-6{fill:url(#linear-gradient-7);}.cls-7{fill:url(#linear-gradient-9);}.cls-8{fill:url(#linear-gradient-10);}.cls-9{fill:url(#linear-gradient-11);}.cls-10{fill:url(#linear-gradient-12);}.cls-11{fill:url(#linear-gradient-14);}.cls-12{fill:url(#linear-gradient-16);}.cls-13{fill:url(#linear-gradient-17);}.cls-14{fill:url(#linear-gradient-18);}.cls-15{fill:url(#linear-gradient-21);}.cls-16{fill:url(#linear-gradient-22);}.cls-17{fill:url(#linear-gradient-23);}</style><linearGradient id="linear-gradient" x1="-16.08" y1="15.76" x2="52.07" y2="83.91" gradientUnits="userSpaceOnUse"><stop offset="0" stop-color="#3cf7a2"/><stop offset="0.33" stop-color="#06e8ff"/><stop offset="0.63" stop-color="#b11aff"/><stop offset="1" stop-color="#ff61d3"/></linearGradient><linearGradient id="linear-gradient-2" x1="-10.29" y1="9.97" x2="57.86" y2="78.12" xlink:href="#linear-gradient"/><linearGradient id="linear-gradient-4" x1="-0.16" y1="-0.16" x2="67.99" y2="67.99" xlink:href="#linear-gradient"/><linearGradient id="linear-gradient-5" x1="-5.95" y1="5.63" x2="62.2" y2="73.78" xlink:href="#linear-gradient"/><linearGradient id="linear-gradient-6" x1="-11.74" y1="11.42" x2="56.42" y2="79.57" xlink:href="#linear-gradient"/><linearGradient id="linear-gradient-7" x1="15.76" y1="-16.08" x2="83.91" y2="52.07" xlink:href="#linear-gradient"/><linearGradient id="linear-gradient-9" x1="5.63" y1="-5.95" x2="73.78" y2="62.2" xlink:href="#linear-gradient"/><linearGradient id="linear-gradient-10" x1="9.97" y1="-10.29" x2="78.12" y2="57.86" xlink:href="#linear-gradient"/><linearGradient id="linear-gradient-11" x1="11.42" y1="-11.74" x2="79.57" y2="56.42" xlink:href="#linear-gradient"/><linearGradient id="linear-gradient-12" x1="-17.53" y1="17.2" x2="50.63" y2="85.36" xlink:href="#linear-gradient"/><linearGradient id="linear-gradient-14" x1="5.63" y1="-5.95" x2="73.78" y2="62.2" xlink:href="#linear-gradient"/><linearGradient id="linear-gradient-16" x1="11.42" y1="-11.74" x2="79.57" y2="56.42" xlink:href="#linear-gradient"/><linearGradient id="linear-gradient-17" x1="9.97" y1="-10.29" x2="78.12" y2="57.86" xlink:href="#linear-gradient"/><linearGradient id="linear-gradient-18" x1="17.2" y1="-17.53" x2="85.36" y2="50.63" xlink:href="#linear-gradient"/><linearGradient id="linear-gradient-21" x1="-0.16" y1="-0.16" x2="67.99" y2="67.99" xlink:href="#linear-gradient"/><linearGradient id="linear-gradient-22" x1="-5.95" y1="5.63" x2="62.2" y2="73.78" xlink:href="#linear-gradient"/><linearGradient id="linear-gradient-23" x1="-10.29" y1="9.97" x2="57.86" y2="78.12" xlink:href="#linear-gradient"/></defs><g id="Layer_2" data-name="Layer 2"><g id="Layer_1-2" data-name="Layer 1"><path class="cls-1" d="M1.45,31.84a1.45,1.45,0,1,0,1.44,1.44A1.45,1.45,0,0,0,1.45,31.84Z"/><path class="cls-2" d="M1.45,20.26a1.45,1.45,0,1,0,1.44,1.45A1.45,1.45,0,0,0,1.45,20.26Z"/><path class="cls-1" d="M21.71,52.1a1.45,1.45,0,1,0,1.44,1.44A1.45,1.45,0,0,0,21.71,52.1Z"/><path class="cls-3" d="M10.13,7.24A2.89,2.89,0,1,0,13,10.13,2.9,2.9,0,0,0,10.13,7.24Z"/><path class="cls-4" d="M10.13,18.81A2.9,2.9,0,1,0,13,21.71,2.91,2.91,0,0,0,10.13,18.81Z"/><path class="cls-5" d="M10.13,30.39A2.9,2.9,0,1,0,13,33.28,2.9,2.9,0,0,0,10.13,30.39Z"/><path class="cls-6" d="M53.54,23.15a1.45,1.45,0,1,0-1.44-1.44A1.45,1.45,0,0,0,53.54,23.15Z"/><path class="cls-6" d="M33.28,2.89a1.45,1.45,0,1,0-1.44-1.44A1.45,1.45,0,0,0,33.28,2.89Z"/><path class="cls-7" d="M21.71,13a2.89,2.89,0,1,0-2.9-2.89A2.9,2.9,0,0,0,21.71,13Z"/><path class="cls-8" d="M21.71,2.89a1.45,1.45,0,1,0-1.45-1.44A1.45,1.45,0,0,0,21.71,2.89Z"/><path class="cls-9" d="M33.28,13a2.89,2.89,0,1,0-2.89-2.89A2.9,2.9,0,0,0,33.28,13Z"/><path class="cls-10" d="M10.13,42A2.9,2.9,0,1,0,13,44.86,2.9,2.9,0,0,0,10.13,42Z"/><path class="cls-7" d="M33.28,17.37a4.34,4.34,0,1,0,4.35,4.34A4.34,4.34,0,0,0,33.28,17.37Z"/><path class="cls-11" d="M44.86,30.39a2.9,2.9,0,1,0,2.9,2.89A2.9,2.9,0,0,0,44.86,30.39Z"/><path class="cls-3" d="M44.86,42a2.9,2.9,0,1,0,2.9,2.89A2.9,2.9,0,0,0,44.86,42Z"/><path class="cls-12" d="M44.86,18.81a2.9,2.9,0,1,0,2.9,2.9A2.91,2.91,0,0,0,44.86,18.81Z"/><path class="cls-13" d="M53.54,31.84A1.45,1.45,0,1,0,55,33.28,1.45,1.45,0,0,0,53.54,31.84Z"/><path class="cls-14" d="M44.86,7.24a2.89,2.89,0,1,0,2.9,2.89A2.9,2.9,0,0,0,44.86,7.24Z"/><path class="cls-4" d="M21.71,28.94a4.35,4.35,0,1,0,4.34,4.34A4.34,4.34,0,0,0,21.71,28.94Z"/><path class="cls-5" d="M21.71,42a2.9,2.9,0,1,0,2.89,2.89A2.91,2.91,0,0,0,21.71,42Z"/><path class="cls-15" d="M21.71,17.37a4.34,4.34,0,1,0,4.34,4.34A4.34,4.34,0,0,0,21.71,17.37Z"/><path class="cls-16" d="M33.28,42a2.9,2.9,0,1,0,2.9,2.89A2.9,2.9,0,0,0,33.28,42Z"/><path class="cls-17" d="M33.28,52.1a1.45,1.45,0,1,0,1.45,1.44A1.45,1.45,0,0,0,33.28,52.1Z"/><path class="cls-15" d="M33.28,28.94a4.35,4.35,0,1,0,4.35,4.34A4.34,4.34,0,0,0,33.28,28.94Z"/></g></g></svg>