<svg xmlns="http://www.w3.org/2000/svg" xmlns:xlink="http://www.w3.org/1999/xlink" viewBox="0 0 35.4 51.58"><defs><style>.cls-1{fill:url(#linear-gradient);}</style><linearGradient id="linear-gradient" x1="-8.68" y1="-0.58" x2="54.07" y2="62.17" gradientUnits="userSpaceOnUse"><stop offset="0" stop-color="#3cf7a2"/><stop offset="0.33" stop-color="#06e8ff"/><stop offset="0.63" stop-color="#b11aff"/><stop offset="1" stop-color="#ff61d3"/></linearGradient></defs><g id="Layer_2" data-name="Layer 2"><g id="Layer_1-2" data-name="Layer 1"><path class="cls-1" d="M33.89,0H1.51A1.52,1.52,0,0,0,0,1.51V50.07a1.52,1.52,0,0,0,.93,1.4,1.49,1.49,0,0,0,.58.11,1.51,1.51,0,0,0,1.07-.44L17.7,36,32.82,51.14a1.51,1.51,0,0,0,2.58-1.07V1.51A1.52,1.52,0,0,0,33.89,0ZM17.7,32.37a1.49,1.49,0,0,0-1.07.45L3,46.43V3H32.37v43.4l-13.6-13.6A1.51,1.51,0,0,0,17.7,32.37Z"/></g></g></svg>