<svg xmlns="http://www.w3.org/2000/svg" xmlns:xlink="http://www.w3.org/1999/xlink" viewBox="0 0 48.66 48.66"><defs><style>.cls-1{fill:url(#linear-gradient);}.cls-2{fill:url(#linear-gradient-2);}.cls-3{fill:url(#linear-gradient-3);}.cls-4{fill:url(#linear-gradient-4);}.cls-5{fill:url(#linear-gradient-5);}.cls-6{fill:url(#linear-gradient-6);}.cls-7{fill:url(#linear-gradient-7);}</style><linearGradient id="linear-gradient" x1="-0.93" y1="16.51" x2="48.71" y2="66.15" gradientUnits="userSpaceOnUse"><stop offset="0" stop-color="#3cf7a2"/><stop offset="0.33" stop-color="#06e8ff"/><stop offset="0.63" stop-color="#b11aff"/><stop offset="1" stop-color="#ff61d3"/></linearGradient><linearGradient id="linear-gradient-2" x1="5.19" y1="37.98" x2="31.03" y2="63.81" xlink:href="#linear-gradient"/><linearGradient id="linear-gradient-3" x1="7.83" y1="35.34" x2="33.66" y2="61.18" xlink:href="#linear-gradient"/><linearGradient id="linear-gradient-4" x1="10.47" y1="32.71" x2="36.3" y2="58.54" xlink:href="#linear-gradient"/><linearGradient id="linear-gradient-5" x1="13.11" y1="30.07" x2="38.94" y2="55.9" xlink:href="#linear-gradient"/><linearGradient id="linear-gradient-6" x1="15.74" y1="27.43" x2="41.58" y2="53.26" xlink:href="#linear-gradient"/><linearGradient id="linear-gradient-7" x1="12.21" y1="3.37" x2="61.85" y2="53.01" xlink:href="#linear-gradient"/></defs><g id="Layer_2" data-name="Layer 2"><g id="Layer_1-2" data-name="Layer 1"><g id="surface1"><path class="cls-1" d="M0,34.88V48.66H48.66V34.88Zm2.85,2.85H36.16v8.08H2.85Zm43,8.08H39V37.73h6.8Z"/><path class="cls-2" d="M7.55,40.34h2.86v2.85H7.55Z"/><path class="cls-3" d="M12.83,40.34h2.85v2.85H12.83Z"/><path class="cls-4" d="M18.1,40.34H21v2.85H18.1Z"/><path class="cls-5" d="M23.38,40.34h2.85v2.85H23.38Z"/><path class="cls-6" d="M28.65,40.34H31.5v2.85H28.65Z"/><path class="cls-7" d="M24.33,31A15.49,15.49,0,1,0,8.84,15.49,15.51,15.51,0,0,0,24.33,31ZM20.51,12.66a3.82,3.82,0,1,1,3.82,3.82A3.82,3.82,0,0,1,20.51,12.66Zm3.82,15.47a12.48,12.48,0,0,1-7.27-2.31c-.24-.16-.47-.34-.69-.51a8.28,8.28,0,0,1,15.91,0c-.22.17-.45.35-.68.51A12.53,12.53,0,0,1,24.33,28.13Zm0-25.28A12.63,12.63,0,0,1,34.47,23a11.17,11.17,0,0,0-5.53-5.54,6.67,6.67,0,1,0-9.22,0,10.85,10.85,0,0,0-3.26,2.26A11.19,11.19,0,0,0,14.18,23,12.64,12.64,0,0,1,24.33,2.85Z"/></g></g></g></svg>