<svg xmlns="http://www.w3.org/2000/svg" xmlns:xlink="http://www.w3.org/1999/xlink" viewBox="0 0 47.55 56.35"><defs><style>.cls-1{fill:url(#linear-gradient);}</style><linearGradient id="linear-gradient" x1="-12.43" y1="-12.42" x2="60.21" y2="60.22" gradientUnits="userSpaceOnUse"><stop offset="0" stop-color="#3cf7a2"/><stop offset="0.33" stop-color="#06e8ff"/><stop offset="0.63" stop-color="#b11aff"/><stop offset="1" stop-color="#ff61d3"/></linearGradient></defs><g id="Layer_2" data-name="Layer 2"><g id="Layer_1-2" data-name="Layer 1"><path class="cls-1" d="M46.19,9.12,24.62.17a2.16,2.16,0,0,0-1.69,0l-21.57,9a2.22,2.22,0,0,0-1.36,2V22.05A36.87,36.87,0,0,0,22.94,56.19a2.17,2.17,0,0,0,1.66,0A36.87,36.87,0,0,0,47.55,22.05V11.16A2.22,2.22,0,0,0,46.19,9.12Zm-3,12.93A32.46,32.46,0,0,1,23.77,51.76,32.46,32.46,0,0,1,4.4,22.05V12.63l19.37-8,19.37,8.05Zm-21.8,7.41L30.8,20a2.2,2.2,0,0,1,3.11,3.12l-11,11a2.21,2.21,0,0,1-3.12,0L13.63,28a2.2,2.2,0,1,1,3.11-3.11Z"/></g></g></svg>