<svg xmlns="http://www.w3.org/2000/svg" xmlns:xlink="http://www.w3.org/1999/xlink" viewBox="0 0 60 58"><defs><style>.cls-1{fill:url(#linear-gradient);}.cls-2{fill:url(#linear-gradient-2);}.cls-3{fill:url(#linear-gradient-3);}.cls-4{fill:url(#linear-gradient-4);}.cls-5{fill:url(#linear-gradient-5);}.cls-6{fill:url(#linear-gradient-6);}.cls-7{fill:url(#linear-gradient-7);}.cls-8{fill:url(#linear-gradient-8);}.cls-9{fill:url(#linear-gradient-9);}.cls-10{fill:url(#linear-gradient-10);}.cls-11{fill:url(#linear-gradient-11);}.cls-12{fill:url(#linear-gradient-12);}.cls-13{fill:url(#linear-gradient-13);}.cls-14{fill:url(#linear-gradient-14);}.cls-15{fill:url(#linear-gradient-15);}.cls-16{fill:url(#linear-gradient-16);}.cls-17{fill:url(#linear-gradient-17);}.cls-18{fill:url(#linear-gradient-18);}.cls-19{fill:url(#linear-gradient-19);}.cls-20{fill:url(#linear-gradient-20);}.cls-21{fill:url(#linear-gradient-21);}.cls-22{fill:url(#linear-gradient-22);}.cls-23{fill:url(#linear-gradient-23);}</style><linearGradient id="linear-gradient" x1="-2.46" y1="-2.46" x2="74.33" y2="74.33" gradientUnits="userSpaceOnUse"><stop offset="0" stop-color="#3cf7a2"/><stop offset="0.33" stop-color="#06e8ff"/><stop offset="0.63" stop-color="#b11aff"/><stop offset="1" stop-color="#ff61d3"/></linearGradient><linearGradient id="linear-gradient-2" x1="18.04" y1="-22.96" x2="94.83" y2="53.83" xlink:href="#linear-gradient"/><linearGradient id="linear-gradient-3" x1="16.04" y1="-20.96" x2="92.83" y2="55.83" xlink:href="#linear-gradient"/><linearGradient id="linear-gradient-4" x1="17.54" y1="-22.46" x2="94.33" y2="54.33" xlink:href="#linear-gradient"/><linearGradient id="linear-gradient-5" x1="15.54" y1="-20.46" x2="92.33" y2="56.33" xlink:href="#linear-gradient"/><linearGradient id="linear-gradient-6" x1="14.04" y1="-18.96" x2="90.83" y2="57.83" xlink:href="#linear-gradient"/><linearGradient id="linear-gradient-7" x1="13.54" y1="-18.46" x2="90.33" y2="58.33" xlink:href="#linear-gradient"/><linearGradient id="linear-gradient-8" x1="12.04" y1="-16.96" x2="88.83" y2="59.83" xlink:href="#linear-gradient"/><linearGradient id="linear-gradient-9" x1="11.54" y1="-16.46" x2="88.33" y2="60.33" xlink:href="#linear-gradient"/><linearGradient id="linear-gradient-10" x1="10.04" y1="-14.96" x2="86.83" y2="61.83" xlink:href="#linear-gradient"/><linearGradient id="linear-gradient-11" x1="9.54" y1="-14.46" x2="86.33" y2="62.33" xlink:href="#linear-gradient"/><linearGradient id="linear-gradient-12" x1="-1.49" y1="-3.43" x2="75.3" y2="73.35" xlink:href="#linear-gradient"/><linearGradient id="linear-gradient-13" x1="-11.96" y1="7.04" x2="64.83" y2="83.83" xlink:href="#linear-gradient"/><linearGradient id="linear-gradient-14" x1="8.54" y1="-13.46" x2="85.33" y2="63.33" xlink:href="#linear-gradient"/><linearGradient id="linear-gradient-15" x1="6.54" y1="-11.46" x2="83.33" y2="65.33" xlink:href="#linear-gradient"/><linearGradient id="linear-gradient-16" x1="8.04" y1="-12.96" x2="84.83" y2="63.83" xlink:href="#linear-gradient"/><linearGradient id="linear-gradient-17" x1="6.04" y1="-10.96" x2="82.83" y2="65.83" xlink:href="#linear-gradient"/><linearGradient id="linear-gradient-18" x1="4.54" y1="-9.46" x2="81.33" y2="67.33" xlink:href="#linear-gradient"/><linearGradient id="linear-gradient-19" x1="4.04" y1="-8.96" x2="80.83" y2="67.83" xlink:href="#linear-gradient"/><linearGradient id="linear-gradient-20" x1="2.54" y1="-7.46" x2="79.33" y2="69.33" xlink:href="#linear-gradient"/><linearGradient id="linear-gradient-21" x1="2.04" y1="-6.96" x2="78.83" y2="69.83" xlink:href="#linear-gradient"/><linearGradient id="linear-gradient-22" x1="0.54" y1="-5.46" x2="77.33" y2="71.33" xlink:href="#linear-gradient"/><linearGradient id="linear-gradient-23" x1="0.04" y1="-4.96" x2="76.83" y2="71.83" xlink:href="#linear-gradient"/></defs><g id="Layer_2" data-name="Layer 2"><g id="Layer_1-2" data-name="Layer 1"><path class="cls-1" d="M10.5,6A4.5,4.5,0,1,0,15,10.5,4.51,4.51,0,0,0,10.5,6Zm0,7A2.5,2.5,0,1,1,13,10.5,2.5,2.5,0,0,1,10.5,13Z"/><circle class="cls-2" cx="50" cy="9" r="1"/><circle class="cls-3" cx="46" cy="9" r="1"/><circle class="cls-4" cx="52" cy="12" r="1"/><circle class="cls-5" cx="48" cy="12" r="1"/><circle class="cls-6" cx="42" cy="9" r="1"/><circle class="cls-7" cx="44" cy="12" r="1"/><circle class="cls-8" cx="38" cy="9" r="1"/><circle class="cls-9" cx="40" cy="12" r="1"/><circle class="cls-10" cx="34" cy="9" r="1"/><circle class="cls-11" cx="36" cy="12" r="1"/><path class="cls-12" d="M60,16.39V4.61A4.62,4.62,0,0,0,55.39,0H4.61A4.62,4.62,0,0,0,0,4.61V16.39A4.56,4.56,0,0,0,1.78,20,4.56,4.56,0,0,0,0,23.61V35.39A4.62,4.62,0,0,0,4.61,40H29v8.1A5,5,0,0,0,25.1,52H1a1,1,0,0,0,0,2H25.1a5,5,0,0,0,9.8,0H59a1,1,0,0,0,0-2H34.9A5,5,0,0,0,31,48.1V40H55.39A4.62,4.62,0,0,0,60,35.39V23.61A4.56,4.56,0,0,0,58.22,20,4.56,4.56,0,0,0,60,16.39ZM33,53a3,3,0,1,1-3-3A3,3,0,0,1,33,53ZM58,23.61V35.39A2.61,2.61,0,0,1,55.39,38H4.61A2.61,2.61,0,0,1,2,35.39V23.61A2.61,2.61,0,0,1,4.61,21H55.39A2.61,2.61,0,0,1,58,23.61ZM4.61,19A2.61,2.61,0,0,1,2,16.39V4.61A2.61,2.61,0,0,1,4.61,2H55.39A2.61,2.61,0,0,1,58,4.61V16.39A2.61,2.61,0,0,1,55.39,19Z"/><path class="cls-13" d="M10.5,34A4.5,4.5,0,1,0,6,29.5,4.51,4.51,0,0,0,10.5,34Zm0-7A2.5,2.5,0,1,1,8,29.5,2.5,2.5,0,0,1,10.5,27Z"/><circle class="cls-14" cx="50" cy="28" r="1"/><circle class="cls-15" cx="46" cy="28" r="1"/><circle class="cls-16" cx="52" cy="31" r="1"/><circle class="cls-17" cx="48" cy="31" r="1"/><circle class="cls-18" cx="42" cy="28" r="1"/><circle class="cls-19" cx="44" cy="31" r="1"/><circle class="cls-20" cx="38" cy="28" r="1"/><circle class="cls-21" cx="40" cy="31" r="1"/><circle class="cls-22" cx="34" cy="28" r="1"/><circle class="cls-23" cx="36" cy="31" r="1"/></g></g></svg>