<svg xmlns="http://www.w3.org/2000/svg" xmlns:xlink="http://www.w3.org/1999/xlink" viewBox="0 0 52.85 52.92"><defs><style>.cls-1{fill:url(#linear-gradient);}.cls-2{fill:url(#linear-gradient-2);}.cls-3{fill:url(#linear-gradient-3);}.cls-4{fill:url(#linear-gradient-4);}.cls-5{fill:url(#linear-gradient-5);}.cls-6{fill:url(#linear-gradient-6);}.cls-7{fill:url(#linear-gradient-8);}.cls-8{fill:url(#linear-gradient-9);}.cls-9{fill:url(#linear-gradient-10);}.cls-10{fill:url(#linear-gradient-11);}.cls-11{fill:url(#linear-gradient-12);}.cls-12{fill:url(#linear-gradient-13);}.cls-13{fill:url(#linear-gradient-14);}</style><linearGradient id="linear-gradient" x1="10.19" y1="-3.9" x2="65.61" y2="51.52" gradientUnits="userSpaceOnUse"><stop offset="0" stop-color="#3cf7a2"/><stop offset="0.33" stop-color="#06e8ff"/><stop offset="0.63" stop-color="#b11aff"/><stop offset="1" stop-color="#ff61d3"/></linearGradient><linearGradient id="linear-gradient-2" x1="11.07" y1="-4.78" x2="66.49" y2="50.64" xlink:href="#linear-gradient"/><linearGradient id="linear-gradient-3" x1="-3.9" y1="10.19" x2="51.52" y2="65.61" xlink:href="#linear-gradient"/><linearGradient id="linear-gradient-4" x1="-8.75" y1="15.03" x2="46.67" y2="70.45" xlink:href="#linear-gradient"/><linearGradient id="linear-gradient-5" x1="-5.66" y1="11.95" x2="49.76" y2="67.37" xlink:href="#linear-gradient"/><linearGradient id="linear-gradient-6" x1="13.71" y1="-7.43" x2="69.13" y2="47.99" xlink:href="#linear-gradient"/><linearGradient id="linear-gradient-8" x1="15.91" y1="-9.63" x2="71.33" y2="45.79" xlink:href="#linear-gradient"/><linearGradient id="linear-gradient-9" x1="2.7" y1="3.58" x2="58.12" y2="59" xlink:href="#linear-gradient"/><linearGradient id="linear-gradient-10" x1="3.58" y1="2.7" x2="59" y2="58.12" xlink:href="#linear-gradient"/><linearGradient id="linear-gradient-11" x1="-9.63" y1="15.91" x2="45.79" y2="71.33" xlink:href="#linear-gradient"/><linearGradient id="linear-gradient-12" x1="1.88" y1="4.41" x2="57.3" y2="59.83" xlink:href="#linear-gradient"/><linearGradient id="linear-gradient-13" x1="2.44" y1="3.84" x2="57.86" y2="59.26" xlink:href="#linear-gradient"/><linearGradient id="linear-gradient-14" x1="3.14" y1="3.14" x2="58.56" y2="58.56" xlink:href="#linear-gradient"/></defs><g id="Layer_2" data-name="Layer 2"><g id="Layer_1-2" data-name="Layer 1"><g id="Processor_security" data-name="Processor security"><path class="cls-1" d="M22,7.93h1.76V9.69H22Z"/><path class="cls-2" d="M44.92,29.06h1.76v1.77H44.92Z"/><path class="cls-3" d="M29.06,43.16h1.77v1.76H29.06Z"/><path class="cls-4" d="M22,45.8h1.76v1.76H22Z"/><path class="cls-5" d="M7.93,25.54H9.69V27.3H7.93Z"/><path class="cls-6" d="M29.06,7.93h1.77V9.69H29.06Z"/><path class="cls-6" d="M43.16,22h1.76v1.76H43.16Z"/><path class="cls-7" d="M38.75,13.21h1.76V15H38.75Z"/><path class="cls-8" d="M12.33,13.21h1.76V15H12.33Z"/><path class="cls-9" d="M38.75,37.87h1.76v1.76H38.75Z"/><path class="cls-10" d="M12.33,37.87h1.76v1.76H12.33Z"/><path class="cls-11" d="M26.32,25.54a2.64,2.64,0,0,0-.78,5.13v1.92H27.3V30.66a2.63,2.63,0,0,0-1-5.12Zm1,2.61a.87.87,0,0,1-.84.91h0a.88.88,0,0,1-.69-1.47.87.87,0,0,1,.62-.29h0a.88.88,0,0,1,.88.85Z"/><path class="cls-12" d="M30.83,23.06V22A4.41,4.41,0,0,0,22,22v1a2.64,2.64,0,0,0-1.76,2.48v7.05a2.64,2.64,0,0,0,2.64,2.64H30a2.64,2.64,0,0,0,2.64-2.64V25.54A2.65,2.65,0,0,0,30.83,23.06Zm-7-1a2.64,2.64,0,1,1,5.28,0v.88H23.78Zm7,10.57a.89.89,0,0,1-.88.88h-7a.88.88,0,0,1-.88-.88V25.54a.88.88,0,0,1,.88-.88H30a.89.89,0,0,1,.88.88Z"/><path class="cls-13" d="M50.2,34.35a2.6,2.6,0,0,0-1.13.26l-2-2h-8.3V30.83h4.41V29.06H38.75V27.3h4.61l5-2.5a2.65,2.65,0,1,0-.81-1.9c0,.11,0,.21,0,.32L43,25.54h-4.2V23.78H41.4V22H38.75V20.26h3.89l2.91-2.91a2.76,2.76,0,0,0,1.13.27A2.65,2.65,0,1,0,44,15a2.57,2.57,0,0,0,.26,1.13l-2.39,2.4H38.75a4.4,4.4,0,0,0-4.4-4.41V11.81l5-5a2.8,2.8,0,0,0,1.13.27A2.65,2.65,0,1,0,37.87,4.4a2.52,2.52,0,0,0,.27,1.14l-5.55,5.54v3H30.83V11.45H29.06v2.64H27.3V7.76a2.64,2.64,0,1,0-1.76,0v6.33H23.78V11.45H22v2.64H20.26V7.56L16.47,3.77a2.6,2.6,0,0,0,.26-1.13,2.64,2.64,0,1,0-2.64,2.64A2.6,2.6,0,0,0,15.22,5L18.5,8.29v5.8a4.4,4.4,0,0,0-4.41,4.41H10.93L8.54,16.1A2.44,2.44,0,0,0,8.81,15a2.65,2.65,0,1,0-2.64,2.65,2.8,2.8,0,0,0,1.13-.27l2.9,2.91h3.89V22H8.49L3.88,25.86a2.57,2.57,0,0,0-1.24-.32,2.65,2.65,0,1,0,2.64,2.64h0a2.54,2.54,0,0,0-.2-1l4.05-3.38h5v1.76H11.45V27.3h2.64v1.76H6.17v1.77h7.92v1.76H9.22L5.67,37.91l-.39,0a2.67,2.67,0,1,0,2.65,2.69,2.73,2.73,0,0,0-.7-1.82l2.93-4.39h3.93a4.4,4.4,0,0,0,4.41,4.4v5.8l-3.28,3.27a2.6,2.6,0,0,0-1.13-.26,2.65,2.65,0,1,0,2.64,2.64,2.6,2.6,0,0,0-.26-1.13l3.79-3.79V38.75H22V44h1.76V38.75h1.76v7.54l5.35,3.34a2.67,2.67,0,1,0,.94-1.49L27.3,45.31V38.75h1.76V41.4h1.77V38.75h1.76v7h6.33a2.64,2.64,0,1,0,1.61-3.37A2.6,2.6,0,0,0,38.92,44H34.35V38.75a4.4,4.4,0,0,0,4.4-4.4h7.57l1.5,1.51A2.6,2.6,0,0,0,47.56,37a2.65,2.65,0,1,0,2.64-2.64ZM50.2,22a.88.88,0,1,1-.88.88A.87.87,0,0,1,50.2,22Zm-3.52-7.93a.88.88,0,1,1-.88.88A.88.88,0,0,1,46.68,14.09ZM40.51,3.52a.88.88,0,1,1-.88.88A.89.89,0,0,1,40.51,3.52ZM26.42,4.4a.89.89,0,1,1-.88.88A.88.88,0,0,1,26.42,4.4ZM13.21,2.64a.88.88,0,0,1,1.76,0,.88.88,0,1,1-1.76,0ZM5.28,15a.89.89,0,1,1,.89.88A.89.89,0,0,1,5.28,15ZM2.64,29.06a.88.88,0,1,1,.88-.88A.88.88,0,0,1,2.64,29.06ZM5.28,41.4a.89.89,0,1,1,.89-.89A.89.89,0,0,1,5.28,41.4Zm8.81,9.68A.88.88,0,1,1,15,50.2.88.88,0,0,1,14.09,51.08Zm19.38-1.76a.88.88,0,1,1-.88.88A.88.88,0,0,1,33.47,49.32ZM41.4,44a.88.88,0,1,1-.89.88A.88.88,0,0,1,41.4,44ZM37,34.35A2.64,2.64,0,0,1,34.35,37H18.5a2.65,2.65,0,0,1-2.65-2.64V18.5a2.65,2.65,0,0,1,2.65-2.65H34.35A2.65,2.65,0,0,1,37,18.5ZM50.2,37.87a.88.88,0,1,1,.88-.88A.88.88,0,0,1,50.2,37.87Z"/></g></g></g></svg>