<svg xmlns="http://www.w3.org/2000/svg" xmlns:xlink="http://www.w3.org/1999/xlink" viewBox="0 0 58.48 50.94"><defs><style>.cls-1{fill:url(#linear-gradient);}.cls-2{fill:url(#linear-gradient-2);}.cls-3{fill:url(#linear-gradient-3);}</style><linearGradient id="linear-gradient" x1="2.41" y1="5.71" x2="58.51" y2="61.82" gradientUnits="userSpaceOnUse"><stop offset="0" stop-color="#3cf7a2"/><stop offset="0.33" stop-color="#06e8ff"/><stop offset="0.63" stop-color="#b11aff"/><stop offset="1" stop-color="#ff61d3"/></linearGradient><linearGradient id="linear-gradient-2" x1="10.66" y1="-2.54" x2="66.77" y2="53.56" xlink:href="#linear-gradient"/><linearGradient id="linear-gradient-3" x1="12.07" y1="-3.96" x2="68.18" y2="52.15" xlink:href="#linear-gradient"/></defs><g id="Layer_2" data-name="Layer 2"><g id="Layer_1-2" data-name="Layer 1"><path class="cls-1" d="M57.54,41.51H53.76V12.74a3.3,3.3,0,0,0-3.3-3.3H44.33a.91.91,0,0,0-.43.1,16,16,0,0,0-29.32,0,.91.91,0,0,0-.43-.1H8a3.3,3.3,0,0,0-3.3,3.3V41.51H.94a.94.94,0,0,0-.94.94v5.19a3.3,3.3,0,0,0,3.3,3.3H55.18a3.3,3.3,0,0,0,3.3-3.3V42.45A.94.94,0,0,0,57.54,41.51ZM29.24,1.89A14.15,14.15,0,1,1,15.09,16,14.15,14.15,0,0,1,29.24,1.89Zm0,30.18a16,16,0,0,0,16-16,15,15,0,0,0-.11-1.89h3.89V38.68H9.43V14.15h3.89A15,15,0,0,0,13.21,16,16,16,0,0,0,29.24,32.07ZM6.6,12.74A1.43,1.43,0,0,1,8,11.32h5.89c-.09.31-.18.63-.26.95H8.49a.94.94,0,0,0-.94.94V39.62a.94.94,0,0,0,.94.94H50a.94.94,0,0,0,.94-.94V13.21a.94.94,0,0,0-.94-.94H44.83c-.08-.32-.17-.64-.26-.95h5.89a1.43,1.43,0,0,1,1.42,1.42V41.51H6.6ZM34.53,43.39l-.31,1h-10l-.31-1Zm22.06,4.25a1.41,1.41,0,0,1-1.41,1.41H3.3a1.41,1.41,0,0,1-1.41-1.41V43.39H22l.73,2.19a.93.93,0,0,0,.89.64H34.9a.94.94,0,0,0,.89-.64l.73-2.19H56.59Z"/><path class="cls-2" d="M29.24,28.3A12.26,12.26,0,1,0,17,16,12.26,12.26,0,0,0,29.24,28.3Zm-8-18.9.63.64a1,1,0,0,0,1.34,0,1,1,0,0,0,0-1.34l-.64-.63a10.34,10.34,0,0,1,5.7-2.36v.9a.94.94,0,0,0,1.88,0v-.9a10.34,10.34,0,0,1,5.7,2.36l-.64.63a1,1,0,0,0,0,1.34,1,1,0,0,0,1.34,0l.63-.64a10.34,10.34,0,0,1,2.36,5.7h-.9a.94.94,0,1,0,0,1.88h.9a10.28,10.28,0,0,1-2.36,5.69L36.58,22a.95.95,0,1,0-1.34,1.34l.64.63a10.34,10.34,0,0,1-5.7,2.36v-.9a.94.94,0,1,0-1.88,0v.9A10.34,10.34,0,0,1,22.6,24l.64-.63A.95.95,0,0,0,21.9,22l-.63.63A10.28,10.28,0,0,1,18.91,17h.9a.94.94,0,1,0,0-1.88h-.9A10.34,10.34,0,0,1,21.27,9.4Z"/><path class="cls-3" d="M29.24,17h2.83a.94.94,0,0,0,0-1.88H30.18V10.38a.94.94,0,0,0-1.88,0V16A.94.94,0,0,0,29.24,17Z"/></g></g></svg>