<svg xmlns="http://www.w3.org/2000/svg" xmlns:xlink="http://www.w3.org/1999/xlink" viewBox="0 0 44.74 53.69"><defs><style>.cls-1{fill:url(#linear-gradient);}.cls-2{fill:url(#linear-gradient-2);}.cls-3{fill:url(#linear-gradient-3);}.cls-4{fill:url(#linear-gradient-4);}</style><linearGradient id="linear-gradient" x1="-6.45" y1="-1.79" x2="65.98" y2="70.64" gradientUnits="userSpaceOnUse"><stop offset="0" stop-color="#3cf7a2"/><stop offset="0.33" stop-color="#06e8ff"/><stop offset="0.63" stop-color="#b11aff"/><stop offset="1" stop-color="#ff61d3"/></linearGradient><linearGradient id="linear-gradient-2" x1="-9.31" y1="1.07" x2="63.12" y2="73.5" xlink:href="#linear-gradient"/><linearGradient id="linear-gradient-3" x1="-0.98" y1="-7.25" x2="71.45" y2="65.18" xlink:href="#linear-gradient"/><linearGradient id="linear-gradient-4" x1="0.36" y1="-8.59" x2="72.79" y2="63.84" xlink:href="#linear-gradient"/></defs><g id="Layer_2" data-name="Layer 2"><g id="Layer_1-2" data-name="Layer 1"><g id="Page-1"><g id="_053---Gym-Time" data-name="053---Gym-Time"><path id="Shape" class="cls-1" d="M42.06,36.69H40.2a7.16,7.16,0,0,0-7.09-6.27h-.9a.9.9,0,0,0,0,1.79h.9a5.39,5.39,0,0,1,5.29,4.48H36.69A2.68,2.68,0,0,0,34,39.37v.9a2.7,2.7,0,0,0,1.79,2.52v7.32a3.58,3.58,0,0,0,7.16,0V42.79a2.68,2.68,0,0,0,1.79-2.52v-.9A2.68,2.68,0,0,0,42.06,36.69Zm-.9,13.42a1.79,1.79,0,0,1-3.58,0V43h3.58ZM43,40.27a.89.89,0,0,1-.89.89H36.69a.89.89,0,0,1-.9-.89v-.9a.89.89,0,0,1,.9-.89h5.37a.89.89,0,0,1,.89.89Z"/><path id="Shape-2" data-name="Shape" class="cls-2" d="M38.48,16.34A16.11,16.11,0,1,0,12,28.4a.88.88,0,0,0,.89.18.89.89,0,0,0,.58-.69.87.87,0,0,0-.32-.85A14.32,14.32,0,1,1,36.69,16.32C36.58,24,29.83,30.42,22,30.42H11.63a7.16,7.16,0,0,0-7.09,6.27H2.68A2.68,2.68,0,0,0,0,39.37v.9a2.68,2.68,0,0,0,1.79,2.52v7.32a3.58,3.58,0,0,0,7.16,0V42.79a2.7,2.7,0,0,0,1.79-2.52v-.9a2.68,2.68,0,0,0-2.69-2.68H6.34a5.39,5.39,0,0,1,5.29-4.48H22C30.79,32.21,38.35,25,38.48,16.34ZM7.16,50.11a1.79,1.79,0,0,1-3.58,0V43H7.16ZM9,39.37v.9a.89.89,0,0,1-.9.89H2.68a.89.89,0,0,1-.89-.89v-.9a.89.89,0,0,1,.89-.89H8.05A.89.89,0,0,1,9,39.37Z"/><path id="Shape-3" data-name="Shape" class="cls-3" d="M22.37,27.74A11.64,11.64,0,1,0,10.74,16.11,11.63,11.63,0,0,0,22.37,27.74Zm-8-6,.73-.42a.9.9,0,0,0,0-1.56.88.88,0,0,0-.9,0l-.73.42A10.05,10.05,0,0,1,12.57,17h.85a.9.9,0,1,0,0-1.79h-.85A9.93,9.93,0,0,1,13.44,12l.73.42a.9.9,0,0,0,1.35-.78.88.88,0,0,0-.45-.77l-.73-.42A9.84,9.84,0,0,1,16.7,8.07l.42.74a.92.92,0,0,0,.78.45.87.87,0,0,0,.77-.45.9.9,0,0,0,0-.9l-.42-.73a9.8,9.8,0,0,1,3.23-.87v.85a.89.89,0,0,0,1.78,0V6.31a9.8,9.8,0,0,1,3.23.87l-.43.73a.9.9,0,0,0,.78,1.35.89.89,0,0,0,.77-.45L28,8.07a10,10,0,0,1,2.36,2.37l-.73.42a.89.89,0,0,0,0,1.55.9.9,0,0,0,.9,0l.73-.42a9.7,9.7,0,0,1,.88,3.22h-.85a.9.9,0,1,0,0,1.79h.85a10.05,10.05,0,0,1-.87,3.23l-.73-.42a.9.9,0,0,0-.9,1.55l.73.42A10,10,0,0,1,28,24.14l-.42-.73a.89.89,0,1,0-1.55.89l.42.73a9.51,9.51,0,0,1-3.22.87v-.85a.9.9,0,0,0-1.79,0v.85A9.57,9.57,0,0,1,18.25,25l.43-.73a.89.89,0,0,0-.34-1.21.87.87,0,0,0-1.21.32l-.43.73a10.17,10.17,0,0,1-2.36-2.36Z"/><path id="Shape-4" data-name="Shape" class="cls-4" d="M25.32,20.32a.89.89,0,0,0,1.26-1.27l-3.32-3.31v-5a.89.89,0,1,0-1.78,0v5.37a.89.89,0,0,0,.26.63Z"/></g></g></g></g></svg>