<svg xmlns="http://www.w3.org/2000/svg" xmlns:xlink="http://www.w3.org/1999/xlink" viewBox="0 0 59.42 53.48"><defs><style>.cls-1{fill:url(#linear-gradient);}</style><linearGradient id="linear-gradient" x1="0.15" y1="-3.4" x2="72.66" y2="69.11" gradientUnits="userSpaceOnUse"><stop offset="0" stop-color="#3cf7a2"/><stop offset="0.33" stop-color="#06e8ff"/><stop offset="0.63" stop-color="#b11aff"/><stop offset="1" stop-color="#ff61d3"/></linearGradient></defs><g id="Layer_2" data-name="Layer 2"><g id="Layer_1-2" data-name="Layer 1"><path class="cls-1" d="M56.45,0H20.8a3,3,0,0,0-3,3V24.76H5a3,3,0,0,0-3,3V47.54H1a1,1,0,0,0-1,1,5,5,0,0,0,5,4.95H36.64a5,5,0,0,0,5-4.94h0a1,1,0,0,0-1-1h-1V36.64H50.51a1,1,0,0,0,0-2h-5.2L43.9,29.71H56.45a3,3,0,0,0,3-3V3A3,3,0,0,0,56.45,0ZM4,27.73a1,1,0,0,1,1-1H36.64a1,1,0,0,1,1,1V47.54H23.77a1,1,0,0,0-1,1h-4a1,1,0,0,0-1-1H4Zm34.79,22.9a3,3,0,0,1-2.11.87H5a3,3,0,0,1-2.8-2H16.84a1,1,0,0,0,1,1h5.94a1,1,0,0,0,1-1H39.45A3.17,3.17,0,0,1,38.75,50.63Zm.87-16V29.71h2.22l1.41,4.95Zm17.82-7.92a1,1,0,0,1-1,1H39.62a3,3,0,0,0-3-3H19.81V3a1,1,0,0,1,1-1H56.45a1,1,0,0,1,1,1Z"/></g></g></svg>