<svg xmlns="http://www.w3.org/2000/svg" xmlns:xlink="http://www.w3.org/1999/xlink" viewBox="0 0 64 59.17"><defs><style>.cls-1{fill:url(#linear-gradient);}.cls-2{fill:url(#linear-gradient-2);}</style><linearGradient id="linear-gradient" x1="8.99" y1="-8.12" x2="77.11" y2="60.01" gradientUnits="userSpaceOnUse"><stop offset="0" stop-color="#3cf7a2"/><stop offset="0.33" stop-color="#06e8ff"/><stop offset="0.63" stop-color="#b11aff"/><stop offset="1" stop-color="#ff61d3"/></linearGradient><linearGradient id="linear-gradient-2" x1="-5.7" y1="6.57" x2="62.43" y2="74.7" xlink:href="#linear-gradient"/></defs><g id="Layer_2" data-name="Layer 2"><g id="Layer_1-2" data-name="Layer 1"><path class="cls-1" d="M11.59,24.58a2,2,0,0,0,2.82,0L17,22a2,2,0,0,0,0-2.83l-2.59-2.59H50a6,6,0,0,1,6,6,3,3,0,0,0,3,3h2a3,3,0,0,0,3-3,14,14,0,0,0-14-14H14.41L17,6a2,2,0,0,0,0-2.83L14.41.58a2,2,0,0,0-2.82,0L.29,11.88a1,1,0,0,0,0,1.41Z"/><path class="cls-2" d="M52.41,34.58a2,2,0,0,0-2.82,0L47,37.17A2,2,0,0,0,47,40l2.59,2.58H14a6,6,0,0,1-6-6,3,3,0,0,0-3-3H3a3,3,0,0,0-3,3,14,14,0,0,0,14,14H49.59L47,53.17A2,2,0,0,0,47,56l2.59,2.58a2,2,0,0,0,2.82,0l11.3-11.29a1,1,0,0,0,0-1.41Z"/></g></g></svg>